<?xml version="1.0" standalone="no"?>
<!DOCTYPE svg PUBLIC "-//W3C//DTD SVG 20010904//EN"
 "http://www.w3.org/TR/2001/REC-SVG-20010904/DTD/svg10.dtd">
<svg version="1.0" xmlns="http://www.w3.org/2000/svg"
 width="1200.000000pt" height="1200.000000pt" viewBox="0 0 1200.000000 1200.000000"
 preserveAspectRatio="xMidYMid meet">
<metadata>
Created by potrace 1.14, written by Peter Selinger 2001-2017
</metadata>
<g transform="translate(0.000000,1200.000000) scale(0.100000,-0.100000)"
fill="#000000" stroke="none">
<path d="M5560 11759 c-1244 -105 -2335 -552 -3282 -1342 -171 -142 -475 -443
-636 -627 -722 -832 -1194 -1851 -1351 -2920 -50 -335 -56 -426 -56 -870 0
-444 6 -535 56 -870 123 -838 458 -1689 937 -2385 220 -320 397 -531 692 -825
356 -357 666 -603 1065 -847 795 -486 1662 -763 2614 -834 208 -15 798 -6 991
15 1197 135 2217 567 3135 1330 155 129 562 536 693 694 697 839 1138 1814
1291 2852 50 335 56 426 56 870 0 444 -6 535 -56 870 -109 744 -382 1491 -782
2145 -367 601 -882 1169 -1442 1591 -524 395 -1078 684 -1700 887 -383 125
-746 202 -1195 253 -169 19 -858 28 -1030 13z m-559 -2923 c277 -54 442 -159
530 -336 49 -100 62 -181 56 -365 -7 -251 -59 -449 -182 -700 -73 -151 -186
-326 -305 -475 -98 -123 -447 -474 -572 -575 l-87 -70 152 -6 c84 -4 188 -14
232 -24 252 -53 396 -180 451 -395 26 -102 15 -382 -20 -514 -30 -115 -95
-266 -163 -379 -166 -275 -492 -611 -834 -859 -545 -397 -1063 -593 -1714
-648 -120 -10 -585 -14 -585 -5 0 2 23 132 50 287 180 1011 440 2744 615 4098
41 322 78 597 81 612 4 22 12 29 42 34 76 13 488 106 792 178 640 152 737 167
1105 161 194 -2 303 -8 356 -19z m5035 -103 c-18 -115 -98 -847 -135 -1238
-106 -1116 -151 -2030 -151 -3065 l0 -585 -723 -126 c-397 -70 -724 -125 -726
-123 -3 2 51 681 118 1508 68 827 121 1512 119 1521 -1 10 -207 -742 -457
-1669 -250 -928 -458 -1689 -462 -1692 -13 -8 -781 -115 -786 -110 -3 3 101
969 231 2146 131 1178 236 2145 234 2150 -2 5 -228 -848 -502 -1896 -275
-1047 -502 -1904 -505 -1904 -3 0 -330 -45 -726 -100 -395 -55 -723 -100 -727
-100 -4 0 2 24 13 53 49 123 234 620 309 832 438 1233 831 2647 1081 3893 18
89 36 167 40 174 7 11 1690 291 1698 282 3 -2 -48 -579 -112 -1281 -65 -702
-116 -1277 -114 -1279 1 -1 147 529 325 1178 177 650 323 1182 325 1184 3 3
1600 282 1620 283 16 1 18 -4 13 -36z"/>
<path d="M4123 7509 c-34 -5 -110 -22 -170 -37 l-108 -27 -47 -190 c-57 -228
-162 -725 -155 -732 6 -6 101 57 208 138 224 169 423 396 523 596 66 131 64
199 -6 235 -44 23 -156 31 -245 17z"/>
<path d="M3855 5624 c-135 -20 -383 -75 -399 -88 -13 -11 -132 -703 -122 -713
6 -7 205 59 346 115 423 165 644 356 645 559 0 75 -23 106 -99 128 -62 19
-246 18 -371 -1z"/>
<path d="M8541 6664 c0 -11 3 -14 6 -6 3 7 2 16 -1 19 -3 4 -6 -2 -5 -13z"/>
</g>
</svg>
